<svg xmlns="http://www.w3.org/2000/svg" xmlns:xlink="http://www.w3.org/1999/xlink" width="300" zoomAndPan="magnify" viewBox="0 0 224.87999 225" height="300" preserveAspectRatio="xMidYMid meet" version="1.0"><defs><filter x="0%" y="0%" width="100%" height="100%" id="9b08b5c2ae"><feColorMatrix values="0 0 0 0 1 0 0 0 0 1 0 0 0 0 1 0 0 0 1 0" color-interpolation-filters="sRGB"/></filter><mask id="3fede8abe4"><g filter="url(#9b08b5c2ae)"><rect x="-22.487999" width="269.855988" fill="#000000" y="-22.5" height="270" fill-opacity="0.298"/></g></mask><clipPath id="7d5218bddc"><path d="M 0.292969 5 L 120.46875 5 L 120.46875 111 L 0.292969 111 Z M 0.292969 5 " clip-rule="nonzero"/></clipPath><clipPath id="f64d8e8b33"><rect x="0" width="121" y="0" height="121"/></clipPath></defs><path fill="#02679a" d="M 112.496094 68.15625 L 112.496094 192.800781 L 84.910156 165.234375 L 69.316406 197.59375 C 65.71875 205.984375 45.332031 198.792969 51.328125 188.007812 L 65.71875 154.449219 L 29.738281 154.449219 C 29.738281 154.449219 112.496094 68.15625 112.496094 68.15625 Z M 112.496094 68.15625 " fill-opacity="1" fill-rule="nonzero"/><path fill="#02679a" d="M 102.898438 23.808594 C 56.125 28.601562 23.742188 70.550781 29.738281 116.09375 C 30.9375 128.082031 33.335938 132.875 33.335938 132.875 L 52.527344 113.699219 C 48.929688 80.140625 72.914062 51.375 105.296875 46.582031 C 137.679688 41.789062 167.664062 65.757812 172.460938 99.316406 C 176.0625 130.476562 155.671875 159.242188 124.488281 165.234375 L 124.488281 189.207031 C 124.488281 189.207031 130.484375 188.007812 131.683594 188.007812 C 172.460938 178.417969 200.046875 138.867188 195.25 95.71875 C 190.453125 50.175781 148.476562 17.816406 102.898438 23.808594 Z M 102.898438 23.808594 " fill-opacity="1" fill-rule="nonzero"/><g mask="url(#3fede8abe4)"><g transform="matrix(1, 0, 0, 1, 52, 46)"><g clip-path="url(#f64d8e8b33)"><g clip-path="url(#7d5218bddc)"><path fill="#02679a" d="M 13.71875 58.109375 L 13.71875 55.714844 L 11.320312 55.714844 C 11.320312 54.515625 11.320312 52.117188 11.320312 50.917969 L 10.121094 50.917969 L 8.921875 53.316406 L 7.722656 53.316406 L 6.523438 52.117188 L 6.523438 47.324219 L 8.921875 44.925781 L 11.320312 44.925781 L 11.320312 43.726562 L 13.71875 44.925781 L 16.117188 47.324219 L 16.117188 42.53125 L 22.113281 36.535156 L 24.515625 35.339844 L 25.714844 32.941406 L 29.3125 31.742188 L 30.511719 29.347656 C 29.3125 29.347656 26.914062 29.347656 25.714844 29.347656 L 29.3125 28.148438 L 31.710938 28.148438 L 36.507812 26.949219 L 36.507812 25.75 L 35.308594 24.550781 L 34.109375 24.550781 L 34.109375 23.351562 L 32.910156 20.957031 L 30.511719 20.957031 L 30.511719 19.757812 L 28.113281 18.558594 L 26.914062 22.15625 L 26.914062 23.351562 L 24.515625 24.550781 L 23.3125 26.949219 L 23.3125 24.550781 L 18.515625 23.351562 L 18.515625 20.957031 L 23.3125 18.558594 L 25.714844 16.160156 L 25.714844 13.765625 L 24.515625 12.566406 L 22.113281 12.566406 L 22.113281 14.964844 C 22.113281 14.964844 20.914062 14.964844 19.714844 14.964844 C 13.71875 20.957031 2.925781 31.742188 0.527344 52.117188 C 0.527344 52.117188 2.925781 55.714844 2.925781 55.714844 L 6.523438 58.109375 L 10.121094 59.308594 M 58.097656 6.574219 L 53.296875 5.375 L 47.300781 5.375 L 40.105469 7.773438 L 38.90625 8.972656 L 42.503906 12.566406 L 42.503906 13.765625 L 41.304688 16.160156 L 43.703125 20.957031 L 44.902344 19.757812 L 47.300781 16.160156 C 49.699219 14.964844 53.296875 13.765625 55.695312 12.566406 L 58.097656 6.574219 M 88.078125 11.367188 L 84.480469 12.566406 L 82.082031 13.765625 L 82.082031 14.964844 L 77.285156 18.558594 L 78.484375 22.15625 L 80.882812 19.757812 L 82.082031 22.15625 L 84.480469 23.351562 L 85.679688 19.757812 L 84.480469 18.558594 L 85.679688 17.359375 L 88.078125 14.964844 L 89.277344 14.964844 L 88.078125 17.359375 L 88.078125 19.757812 C 89.277344 19.757812 90.476562 18.558594 90.476562 18.558594 L 88.078125 20.957031 L 88.078125 22.15625 L 84.480469 25.75 L 80.882812 24.550781 L 80.882812 23.351562 L 79.683594 23.351562 L 80.882812 25.75 L 77.285156 25.75 L 76.085938 28.148438 L 73.6875 30.542969 L 72.488281 30.542969 L 72.488281 41.332031 L 73.6875 41.332031 L 74.886719 38.933594 L 77.285156 36.535156 L 77.285156 35.339844 L 80.882812 34.140625 L 82.082031 36.535156 L 84.480469 37.734375 L 83.28125 40.132812 L 85.679688 40.132812 L 86.878906 37.734375 L 84.480469 34.140625 L 88.078125 36.535156 L 88.078125 38.933594 L 90.476562 41.332031 L 91.679688 37.734375 L 92.878906 37.734375 C 94.078125 38.933594 95.277344 40.132812 95.277344 41.332031 L 98.875 41.332031 L 101.273438 42.53125 L 100.074219 43.726562 L 97.675781 46.125 L 94.078125 46.125 L 90.476562 44.925781 L 88.078125 44.925781 L 86.878906 47.324219 L 82.082031 42.53125 L 79.683594 41.332031 L 74.886719 42.53125 L 72.488281 43.726562 L 72.488281 72.492188 L 74.886719 70.09375 L 77.285156 72.492188 L 80.882812 72.492188 L 82.082031 74.890625 L 80.882812 77.285156 L 83.28125 79.683594 L 83.28125 84.476562 L 84.480469 86.875 L 83.28125 90.46875 C 83.28125 92.867188 83.28125 94.066406 83.28125 96.464844 C 84.480469 98.859375 84.480469 101.257812 85.679688 104.851562 L 86.878906 108.449219 L 86.878906 110.84375 L 88.078125 110.84375 L 91.679688 108.449219 L 94.078125 108.449219 L 98.875 103.652344 L 98.875 101.257812 L 101.273438 98.859375 L 98.875 96.464844 L 101.273438 94.066406 L 103.671875 92.867188 L 104.871094 91.667969 L 103.671875 89.273438 L 103.671875 80.882812 L 106.070312 76.089844 L 108.46875 73.691406 L 110.867188 66.5 L 110.867188 65.300781 C 109.667969 65.300781 108.46875 65.300781 107.269531 65.300781 C 106.070312 65.300781 106.070312 65.300781 104.871094 65.300781 C 103.671875 61.707031 102.472656 59.308594 101.273438 55.714844 L 98.875 53.316406 L 97.675781 49.71875 L 98.875 48.523438 L 101.273438 50.917969 L 103.671875 58.109375 L 106.070312 60.507812 L 104.871094 62.90625 L 108.46875 65.300781 L 110.867188 62.90625 L 114.464844 60.507812 L 116.863281 58.109375 L 116.863281 55.714844 C 116.863281 54.515625 115.664062 54.515625 115.664062 53.316406 L 113.265625 55.714844 L 112.066406 53.316406 L 109.667969 52.117188 L 109.667969 48.523438 L 112.066406 50.917969 L 114.464844 50.917969 C 115.664062 52.117188 116.863281 53.316406 118.0625 54.515625 L 120.460938 52.117188 C 120.460938 49.71875 118.0625 40.132812 113.265625 30.542969 C 108.46875 22.15625 98.875 13.765625 98.875 13.765625 L 97.675781 14.964844 L 95.277344 17.359375 L 92.878906 14.964844 L 95.277344 14.964844 L 96.476562 13.765625 L 91.679688 12.566406 Z M 88.078125 11.367188 " fill-opacity="1" fill-rule="nonzero"/></g></g></g></g></svg>